<svg width="1221" height="317" viewBox="0 0 1221 317" fill="none" xmlns="http://www.w3.org/2000/svg">
<g opacity="0.2">
<path d="M174.643 96.7598C174.116 97.2776 173.273 97.2778 172.734 96.7727C166.527 90.9566 159.307 86.468 151.074 83.3071C142.412 79.9816 133.248 78.3189 123.581 78.3189C113.527 78.3189 104.285 80.0976 95.8557 83.6551C87.426 87.1352 80.1177 92.1234 73.9308 98.6197C67.8213 105.039 63.0651 112.656 59.6623 121.473C56.3368 130.289 54.6741 139.995 54.6741 150.59C54.6741 161.108 56.3368 170.813 59.6623 179.707C62.9877 188.523 67.6666 196.18 73.6988 202.676C79.7311 209.172 86.8847 214.199 95.1597 217.756C103.435 221.314 112.522 223.093 122.421 223.093C131.546 223.093 139.937 221.585 147.594 218.569C155.327 215.475 162.094 211.144 167.895 205.576C173.772 199.93 178.49 193.241 182.047 185.507C185.49 178.11 187.683 170.019 188.629 161.234C188.714 160.44 188.087 159.754 187.289 159.754H180.053C175.546 159.754 173.888 153.827 177.742 151.489L188.096 145.206C188.444 144.995 188.843 144.879 189.251 144.866C192.498 144.762 206.919 144.242 206.969 144.883L207.452 151.17C207.452 164.394 205.364 176.498 201.188 187.479C197.089 198.461 191.25 207.973 183.671 216.016C176.092 224.059 167.121 230.285 156.758 234.693C146.395 239.024 134.988 241.189 122.537 241.189C109.776 241.189 97.9825 238.947 87.1554 234.461C76.4056 229.898 67.0092 223.557 58.9662 215.436C51.0006 207.316 44.8137 197.804 40.4055 186.899C35.9973 175.917 33.7932 163.969 33.7932 151.054C33.7932 138.061 36.036 126.035 40.5215 114.976C45.007 103.917 51.2713 94.2889 59.3142 86.0912C67.3572 77.8935 76.8309 71.552 87.7354 67.0664C98.6398 62.5036 110.511 60.2222 123.349 60.2222C135.491 60.2222 147.014 62.3103 157.918 66.4864C168.446 70.4901 177.837 76.1642 186.091 83.5087C186.672 84.0253 186.686 84.9241 186.132 85.4689L174.643 96.7598Z" fill="url(#paint0_linear_59_46)"/>
<path d="M121.339 260.109C95.0841 260.109 95.1597 223.093 95.1597 223.093L121.339 229.903L147.594 223.093C147.594 223.093 147.594 260.109 121.339 260.109Z" fill="url(#paint1_linear_59_46)"/>
<path d="M157.32 150.283C157.32 148.763 156.467 147.368 155.109 146.677C151.632 144.906 147.909 143.277 143.737 141.692C136.84 139.049 131.815 133.947 129.204 126.957C127.639 122.717 126.03 118.941 124.288 115.416C123.605 114.041 122.198 113.168 120.666 113.168C119.134 113.168 117.719 114.041 117.044 115.42C115.305 118.933 113.7 122.708 112.136 126.941C109.524 133.943 104.495 139.045 97.6109 141.684C93.4146 143.281 89.6874 144.91 86.2229 146.677C84.8686 147.364 84.0156 148.759 84.0156 150.279C84.0156 151.799 84.8686 153.194 86.2269 153.885C89.7116 155.656 93.4349 157.289 97.5987 158.865C104.495 161.509 109.52 166.611 112.132 173.605C113.704 177.862 115.309 181.629 117.044 185.142C117.727 186.521 119.13 187.394 120.666 187.394C122.202 187.394 123.609 186.521 124.288 185.142C126.03 181.629 127.635 177.853 129.196 173.617C131.811 166.615 136.844 161.513 143.721 158.873C147.901 157.289 151.624 155.66 155.109 153.889C156.467 153.198 157.32 151.807 157.32 150.283Z" fill="url(#paint2_linear_59_46)"/>
</g>
<path d="M415.593 99.6611C408.838 93.0693 400.904 88.0238 391.789 84.5244C382.674 81.0251 373.031 79.2754 362.858 79.2754C352.279 79.2754 342.554 81.1471 333.684 84.8906C324.813 88.5527 317.123 93.8018 310.612 100.638C304.183 107.392 299.178 115.408 295.598 124.686C292.098 133.963 290.349 144.176 290.349 155.325C290.349 166.393 292.098 176.606 295.598 185.965C299.097 195.242 304.021 203.299 310.368 210.135C316.716 216.971 324.243 222.26 332.951 226.004C341.659 229.747 351.221 231.619 361.638 231.619C371.241 231.619 380.07 230.032 388.127 226.858C396.265 223.603 403.386 219.046 409.489 213.187C415.674 207.246 420.638 200.206 424.382 192.068C428.207 183.849 430.567 174.816 431.462 164.969H364.323V148.001H450.505L451.115 155.936C451.115 169.852 448.918 182.588 444.523 194.144C440.21 205.7 434.066 215.709 426.091 224.173C418.116 232.636 408.675 239.188 397.771 243.826C386.866 248.383 374.862 250.662 361.76 250.662C348.332 250.662 335.922 248.302 324.528 243.582C313.216 238.781 303.329 232.107 294.865 223.562C286.483 215.018 279.973 205.008 275.334 193.533C270.695 181.977 268.376 169.404 268.376 155.813C268.376 142.142 270.736 129.487 275.456 117.85C280.176 106.212 286.768 96.0804 295.231 87.4541C303.695 78.8278 313.664 72.1546 325.139 67.4346C336.613 62.6331 349.105 60.2324 362.614 60.2324C375.391 60.2324 387.517 62.4297 398.991 66.8242C410.547 71.2188 420.801 77.5257 429.753 85.7451L415.593 99.6611ZM587.59 231.985C572.453 243.623 555.77 249.441 537.541 249.441C524.846 249.441 513.452 246.593 503.361 240.896C493.27 235.2 485.295 227.469 479.436 217.703C473.658 207.856 470.769 196.748 470.769 184.378C470.769 172.496 473.454 161.917 478.825 152.64C484.196 143.281 491.561 135.916 500.92 130.545C510.279 125.174 520.899 122.488 532.78 122.488C544.987 122.488 555.729 125.418 565.007 131.277C574.366 137.137 581.649 145.275 586.857 155.691C592.066 166.108 594.67 178.152 594.67 191.824V195.73H492.497C493.962 202.892 496.892 209.118 501.286 214.407C505.681 219.697 511.174 223.807 517.766 226.736C524.439 229.666 531.844 231.131 539.982 231.131C553.98 231.131 566.757 226.533 578.312 217.337L587.59 231.985ZM491.765 178.641H575.749C574.854 171.072 572.494 164.48 568.669 158.865C564.925 153.169 560.043 148.733 554.021 145.56C548.08 142.386 541.366 140.799 533.879 140.799C526.311 140.799 519.475 142.386 513.371 145.56C507.349 148.733 502.425 153.169 498.601 158.865C494.857 164.48 492.578 171.072 491.765 178.641ZM737.126 247H717.106V176.565C717.106 165.579 714.014 156.871 707.829 150.442C701.726 144.013 693.384 140.799 682.805 140.799C675.236 140.799 668.441 142.508 662.419 145.926C656.397 149.262 651.636 153.982 648.137 160.086C644.637 166.189 642.888 173.27 642.888 181.326V247H622.868V124.93H640.324L641.057 144.705C645.533 137.544 651.717 132.05 659.611 128.226C667.587 124.401 676.538 122.488 686.467 122.488C702.01 122.488 714.34 127.168 723.454 136.526C732.569 145.885 737.126 158.499 737.126 174.368V247ZM826.726 249.441C814.6 249.441 803.695 246.674 794.011 241.141C784.326 235.607 776.677 228.079 771.062 218.558C765.528 208.955 762.761 198.09 762.761 185.965C762.761 173.921 765.528 163.138 771.062 153.616C776.677 144.013 784.326 136.445 794.011 130.911C803.695 125.296 814.6 122.488 826.726 122.488C838.851 122.488 849.715 125.296 859.318 130.911C868.921 136.445 876.49 144.013 882.023 153.616C887.557 163.138 890.324 173.921 890.324 185.965C890.324 198.09 887.557 208.955 882.023 218.558C876.49 228.079 868.921 235.607 859.318 241.141C849.715 246.674 838.851 249.441 826.726 249.441ZM826.604 231.375C834.823 231.375 842.188 229.381 848.698 225.394C855.209 221.406 860.336 215.994 864.079 209.158C867.904 202.322 869.816 194.591 869.816 185.965C869.816 177.339 867.904 169.607 864.079 162.771C860.336 155.936 855.209 150.524 848.698 146.536C842.188 142.549 834.823 140.555 826.604 140.555C818.384 140.555 810.979 142.549 804.387 146.536C797.876 150.524 792.709 155.936 788.884 162.771C785.14 169.607 783.269 177.339 783.269 185.965C783.269 194.591 785.14 202.322 788.884 209.158C792.709 215.994 797.876 221.406 804.387 225.394C810.979 229.381 818.384 231.375 826.604 231.375ZM1027.17 124.93L975.773 247H956.364L905.095 124.93H926.701L966.252 226.004L1005.92 124.93H1027.17ZM1150.09 247H1132.88L1131.54 230.887C1127.06 236.665 1121.36 241.222 1114.45 244.559C1107.53 247.814 1099.8 249.441 1091.25 249.441C1082.46 249.441 1074.61 247.732 1067.69 244.314C1060.78 240.815 1055.32 236.054 1051.33 230.032C1047.43 224.01 1045.48 217.174 1045.48 209.524C1045.48 201.468 1047.59 194.388 1051.82 188.284C1056.14 182.099 1061.96 177.257 1069.28 173.758C1076.68 170.258 1085.07 168.509 1094.43 168.509C1100.53 168.509 1106.75 169.282 1113.1 170.828C1119.45 172.293 1125.11 174.327 1130.07 176.932V171.805C1130.07 165.294 1128.44 159.76 1125.19 155.203C1121.93 150.564 1117.58 147.024 1112.13 144.583C1106.67 142.06 1100.65 140.799 1094.06 140.799C1088.36 140.799 1082.54 141.857 1076.6 143.973C1070.66 146.007 1064.97 149.181 1059.51 153.494L1052.92 136.282C1060 131.725 1067.45 128.307 1075.26 126.028C1083.07 123.668 1090.8 122.488 1098.45 122.488C1109.03 122.488 1118.15 124.645 1125.8 128.958C1133.53 133.19 1139.51 139.253 1143.74 147.146C1147.97 154.959 1150.09 164.236 1150.09 174.979V247ZM1094.79 231.131C1101.06 231.131 1106.8 229.829 1112 227.225C1117.21 224.62 1121.44 220.877 1124.7 215.994C1127.95 211.03 1129.74 205.171 1130.07 198.416V196.341C1125.59 192.841 1120.55 190.156 1114.93 188.284C1109.4 186.331 1103.74 185.354 1097.97 185.354C1088.93 185.354 1081.36 187.552 1075.26 191.946C1069.24 196.341 1066.23 201.915 1066.23 208.67C1066.23 212.902 1067.45 216.727 1069.89 220.145C1072.41 223.562 1075.83 226.248 1080.14 228.201C1084.46 230.154 1089.34 231.131 1094.79 231.131Z" fill="url(#paint3_linear_59_46)"/>
<defs>
<linearGradient id="paint0_linear_59_46" x1="263.07" y1="315.548" x2="45.6811" y2="67.4911" gradientUnits="userSpaceOnUse">
<stop offset="0.149038" stop-color="#486EBB"/>
<stop offset="1" stop-color="#1B3569"/>
</linearGradient>
<linearGradient id="paint1_linear_59_46" x1="263.07" y1="315.548" x2="45.6811" y2="67.4911" gradientUnits="userSpaceOnUse">
<stop offset="0.149038" stop-color="#486EBB"/>
<stop offset="1" stop-color="#1B3569"/>
</linearGradient>
<linearGradient id="paint2_linear_59_46" x1="180.797" y1="207.98" x2="102.048" y2="105.834" gradientUnits="userSpaceOnUse">
<stop offset="0.149038" stop-color="#486EBB"/>
<stop offset="1" stop-color="#1B3569"/>
</linearGradient>
<linearGradient id="paint3_linear_59_46" x1="495.476" y1="-148.462" x2="618.402" y2="62.9359" gradientUnits="userSpaceOnUse">
<stop offset="0.177885" stop-color="#486EBB"/>
<stop offset="0.985" stop-color="#1B3569"/>
</linearGradient>
</defs>
</svg>
