<?xml version="1.0" encoding="UTF-8"?><svg id="a" xmlns="http://www.w3.org/2000/svg" viewBox="0 0 1920 643.07"><g><path d="M270.35,362.5c0,31.16-23.97,56.73-54.48,59.23,.12,.11,.26,.22,.38,.33,.74-.06,1.49-.09,2.24-.09,26.46,0,52.59,35.9,52.59,139.26,0-103.07,26.12-139.26,52.56-139.26,.3,0,.58,0,.88,.02,.1-.1,.2-.19,.3-.27-30.5-2.52-54.47-28.08-54.47-59.23"/><path d="M396.55,311.71l-77.47-37.18v62.25c0,24.96,20.23,45.19,45.19,45.19h53.16v-37.09c0-14.15-8.12-27.05-20.88-33.18"/><path d="M223.38,321.56v-47.03l-77.47,37.18c-12.76,6.13-20.88,19.02-20.88,33.18v37.09h53.16c24.96,0,45.19-20.23,45.19-45.19v-15.23Z"/><path d="M319.39,247.99v-93.09c0-4.85-1.42-9.54-4-13.27l-38.26-55.2-1.39-2.12c-.85-1.3-2.02-2.07-3.25-2.36-.06-.02-.13-.01-.19-.03-.3-.06-.6-.11-.91-.1-.3,0-.6,.05-.91,.1-.06,.01-.13,.01-.19,.03-1.23,.29-2.4,1.06-3.25,2.36l-1.39,2.12-38.26,55.2c-2.59,3.73-4,8.43-4,13.27v93.09l48-27.15,48.01,27.15Z"/></g><path d="M758.04,282.48c5.44-47.7,47.28-84.94,97.91-84.94,60.25,0,87.45,50.63,87.45,50.63l-128.45,90.38c11.72,11.71,27.2,18.83,44.35,18.83,40.59,0,58.58-35.15,58.58-35.15l25.11,16.32s-28.45,50.63-87.03,50.63c-38.5,0-72.39-21.76-88.29-53.56l132.22-92.89c-9.21-7.53-22.59-13.81-40.59-13.81-30.54,0-56.9,23.01-61.93,53.56h-39.33Z"/><path d="M1023.32,385.83h-37.24V201.31h37.24v120.51l51.05-99.58c9.62-16.74,25.94-27.2,48.54-24.27,30.54,4.18,35.56,28.87,35.56,43.1v144.77h-37.66V243.57c0-3.77-1.67-9.21-7.11-10.46-6.69-1.67-12.13,.84-15.06,6.69l-75.32,146.03Z"/><path d="M1298.22,389.6c-54.4,0-98.75-43.1-98.75-95.82s44.35-95.82,98.75-95.82,97.91,42.68,97.91,95.82-43.93,95.82-97.91,95.82Zm0-160.26c-33.89,0-61.51,28.87-61.51,64.44s27.62,64.02,61.51,64.02,61.09-28.87,61.09-64.02-27.2-64.44-61.09-64.44Z"/><path d="M1486.93,385.83l-80.76-184.52h39.75l57.32,141.43,57.32-141.43h39.75l-80.75,184.52h-32.64Z"/><path d="M1790.28,312.19l10.46,73.64h-38.91l-5.02-32.64c-20.08,23.85-43.93,34.73-70.71,35.98-15.06,.84-68.62-5.02-68.62-53.56,.42-78.66,115.9-40.59,129.71-82.85,4.19-12.13-4.6-30.54-44.35-27.2-24.27,2.09-43.1,13.81-52.72,38.91l-28.45-7.53c10.88-34.31,40.17-56.9,81.17-59.83,28.87-2.09,79.08,5.44,82.01,47.28,5.86,74.9-123.02,40.59-126.78,87.45-.84,9.62,3.76,25.52,28.45,25.52,33.06,0,61.93-26.78,67.37-45.19h36.4Z"/><path d="M499.98,331.03c-5.38-9.09-9.55-18.98-12.52-29.67-2.97-10.69-4.46-22.15-4.46-34.39s1.57-23.92,4.72-35.07c3.14-11.15,7.63-21.44,13.46-30.87,5.83-9.43,12.8-17.92,20.92-25.47,8.12-7.55,17.15-13.95,27.1-19.21,20.81-10.98,43.5-16.46,68.09-16.46,36.13,0,66.03,10.06,89.69,30.18l-17.84,24.35c-20.01-17.38-44.99-26.07-74.95-26.07-27.1,0-50.08,8.92-68.94,26.75-19.1,17.95-28.64,40.3-28.64,67.06,0,29.15,9.43,52.94,28.3,71.34,18.75,18.41,42.7,26.01,71.86,26.01,19.48-.22,43.42-6.39,59.17-17.78,9.17-6.87,9.09-9.82,12.52-13.82v-23.91h-84.21v-28.81h115.93v110.96h-31.73v-23.5c-13.03,11.78-30.47,19.95-52.31,24.52-8,1.6-17.32,2.4-27.96,2.4s-21.44-1.35-32.41-4.03-21.15-6.57-30.53-11.66c-9.38-5.08-17.92-11.23-25.64-18.44-7.72-7.2-14.26-15.35-19.64-24.44Z"/></svg>